<svg width="235" height="236" viewBox="0 0 235 236" fill="none" xmlns="http://www.w3.org/2000/svg">
<g opacity="0.3">
<mask id="path-1-outside-1_1068_4" maskUnits="userSpaceOnUse" x="1" y="0" width="17" height="17" fill="black">
<rect fill="white" x="1" width="17" height="17"/>
<path fill-rule="evenodd" clip-rule="evenodd" d="M9.5 1C9.22386 1 9 1.22386 9 1.5V8H2.5C2.22386 8 2 8.22386 2 8.5C2 8.77614 2.22386 9 2.5 9H9V15.5C9 15.7761 9.22386 16 9.5 16C9.77614 16 10 15.7761 10 15.5V9H16.5C16.7761 9 17 8.77614 17 8.5C17 8.22386 16.7761 8 16.5 8H10V1.5C10 1.22386 9.77614 1 9.5 1Z"/>
</mask>
<path fill-rule="evenodd" clip-rule="evenodd" d="M9.5 1C9.22386 1 9 1.22386 9 1.5V8H2.5C2.22386 8 2 8.22386 2 8.5C2 8.77614 2.22386 9 2.5 9H9V15.5C9 15.7761 9.22386 16 9.5 16C9.77614 16 10 15.7761 10 15.5V9H16.5C16.7761 9 17 8.77614 17 8.5C17 8.22386 16.7761 8 16.5 8H10V1.5C10 1.22386 9.77614 1 9.5 1Z" fill="#5C37B7"/>
<path d="M9 8V9H10V8H9ZM9 9H10V8H9V9ZM10 9V8H9V9H10ZM10 8H9V9H10V8ZM10 1.5C10 1.77614 9.77614 2 9.5 2V0C8.67157 0 8 0.671575 8 1.5H10ZM10 8V1.5H8V8H10ZM2.5 9H9V7H2.5V9ZM3 8.5C3 8.77614 2.77614 9 2.5 9V7C1.67157 7 1 7.67157 1 8.5H3ZM2.5 8C2.77614 8 3 8.22386 3 8.5H1C1 9.32843 1.67157 10 2.5 10V8ZM9 8H2.5V10H9V8ZM10 15.5V9H8V15.5H10ZM9.5 15C9.77614 15 10 15.2239 10 15.5H8C8 16.3284 8.67157 17 9.5 17V15ZM9 15.5C9 15.2239 9.22386 15 9.5 15V17C10.3284 17 11 16.3284 11 15.5H9ZM9 9V15.5H11V9H9ZM16.5 8H10V10H16.5V8ZM16 8.5C16 8.22386 16.2239 8 16.5 8V10C17.3284 10 18 9.32843 18 8.5H16ZM16.5 9C16.2239 9 16 8.77614 16 8.5H18C18 7.67157 17.3284 7 16.5 7V9ZM10 9H16.5V7H10V9ZM9 1.5V8H11V1.5H9ZM9.5 2C9.22386 2 9 1.77614 9 1.5H11C11 0.671573 10.3284 0 9.5 0V2Z" fill="#9173E6" mask="url(#path-1-outside-1_1068_4)"/>
</g>
<mask id="path-3-outside-2_1068_4" maskUnits="userSpaceOnUse" x="23" y="9" width="17" height="17" fill="black">
<rect fill="white" x="23" y="9" width="17" height="17"/>
<path fill-rule="evenodd" clip-rule="evenodd" d="M31.5 10C31.2239 10 31 10.2239 31 10.5V17H24.5C24.2239 17 24 17.2239 24 17.5C24 17.7761 24.2239 18 24.5 18H31V24.5C31 24.7761 31.2239 25 31.5 25C31.7761 25 32 24.7761 32 24.5V18H38.5C38.7761 18 39 17.7761 39 17.5C39 17.2239 38.7761 17 38.5 17H32V10.5C32 10.2239 31.7761 10 31.5 10Z"/>
</mask>
<path fill-rule="evenodd" clip-rule="evenodd" d="M31.5 10C31.2239 10 31 10.2239 31 10.5V17H24.5C24.2239 17 24 17.2239 24 17.5C24 17.7761 24.2239 18 24.5 18H31V24.5C31 24.7761 31.2239 25 31.5 25C31.7761 25 32 24.7761 32 24.5V18H38.5C38.7761 18 39 17.7761 39 17.5C39 17.2239 38.7761 17 38.5 17H32V10.5C32 10.2239 31.7761 10 31.5 10Z" fill="#5C37B7"/>
<path d="M31 17V18H32V17H31ZM31 18H32V17H31V18ZM32 18V17H31V18H32ZM32 17H31V18H32V17ZM32 10.5C32 10.7761 31.7761 11 31.5 11V9C30.6716 9 30 9.67157 30 10.5H32ZM32 17V10.5H30V17H32ZM24.5 18H31V16H24.5V18ZM25 17.5C25 17.7761 24.7761 18 24.5 18V16C23.6716 16 23 16.6716 23 17.5H25ZM24.5 17C24.7761 17 25 17.2239 25 17.5H23C23 18.3284 23.6716 19 24.5 19V17ZM31 17H24.5V19H31V17ZM32 24.5V18H30V24.5H32ZM31.5 24C31.7761 24 32 24.2239 32 24.5H30C30 25.3284 30.6716 26 31.5 26V24ZM31 24.5C31 24.2239 31.2239 24 31.5 24V26C32.3284 26 33 25.3284 33 24.5H31ZM31 18V24.5H33V18H31ZM38.5 17H32V19H38.5V17ZM38 17.5C38 17.2239 38.2239 17 38.5 17V19C39.3284 19 40 18.3284 40 17.5H38ZM38.5 18C38.2239 18 38 17.7761 38 17.5H40C40 16.6716 39.3284 16 38.5 16V18ZM32 18H38.5V16H32V18ZM31 10.5V17H33V10.5H31ZM31.5 11C31.2239 11 31 10.7761 31 10.5H33C33 9.67157 32.3284 9 31.5 9V11Z" fill="#9173E6" mask="url(#path-3-outside-2_1068_4)"/>
<path d="M2 234.117L108.346 110.918" stroke="#936EEA" stroke-width="3"/>
<path d="M149.891 115.16L226.582 25.3223" stroke="#936EEA" stroke-width="3"/>
<mask id="path-7-outside-3_1068_4" maskUnits="userSpaceOnUse" x="218" y="150" width="17" height="17" fill="black">
<rect fill="white" x="218" y="150" width="17" height="17"/>
<path fill-rule="evenodd" clip-rule="evenodd" d="M226.5 151C226.224 151 226 151.224 226 151.5V158H219.5C219.224 158 219 158.224 219 158.5C219 158.776 219.224 159 219.5 159H226V165.5C226 165.776 226.224 166 226.5 166C226.776 166 227 165.776 227 165.5V159H233.5C233.776 159 234 158.776 234 158.5C234 158.224 233.776 158 233.5 158H227V151.5C227 151.224 226.776 151 226.5 151Z"/>
</mask>
<path fill-rule="evenodd" clip-rule="evenodd" d="M226.5 151C226.224 151 226 151.224 226 151.5V158H219.5C219.224 158 219 158.224 219 158.5C219 158.776 219.224 159 219.5 159H226V165.5C226 165.776 226.224 166 226.5 166C226.776 166 227 165.776 227 165.5V159H233.5C233.776 159 234 158.776 234 158.5C234 158.224 233.776 158 233.5 158H227V151.5C227 151.224 226.776 151 226.5 151Z" fill="#5C37B7"/>
<path d="M226 158V159H227V158H226ZM226 159H227V158H226V159ZM227 159V158H226V159H227ZM227 158H226V159H227V158ZM227 151.5C227 151.776 226.776 152 226.5 152V150C225.672 150 225 150.672 225 151.5H227ZM227 158V151.5H225V158H227ZM219.5 159H226V157H219.5V159ZM220 158.5C220 158.776 219.776 159 219.5 159V157C218.672 157 218 157.672 218 158.5H220ZM219.5 158C219.776 158 220 158.224 220 158.5H218C218 159.328 218.672 160 219.5 160V158ZM226 158H219.5V160H226V158ZM227 165.5V159H225V165.5H227ZM226.5 165C226.776 165 227 165.224 227 165.5H225C225 166.328 225.672 167 226.5 167V165ZM226 165.5C226 165.224 226.224 165 226.5 165V167C227.328 167 228 166.328 228 165.5H226ZM226 159V165.5H228V159H226ZM233.5 158H227V160H233.5V158ZM233 158.5C233 158.224 233.224 158 233.5 158V160C234.328 160 235 159.328 235 158.5H233ZM233.5 159C233.224 159 233 158.776 233 158.5H235C235 157.672 234.328 157 233.5 157V159ZM227 159H233.5V157H227V159ZM226 151.5V158H228V151.5H226ZM226.5 152C226.224 152 226 151.776 226 151.5H228C228 150.672 227.328 150 226.5 150V152Z" fill="#9173E6" mask="url(#path-7-outside-3_1068_4)"/>
</svg>
