<svg width="198" height="202" viewBox="0 0 198 202" fill="none" xmlns="http://www.w3.org/2000/svg">
<path d="M17.3594 200.145L196.252 2.91016" stroke="#936EEA" stroke-width="3"/>
<g opacity="0.3">
<mask id="path-2-outside-1_1068_3" maskUnits="userSpaceOnUse" x="0" y="0" width="17" height="17" fill="black">
<rect fill="white" width="17" height="17"/>
<path fill-rule="evenodd" clip-rule="evenodd" d="M8.5 1C8.22386 1 8 1.22386 8 1.5V8H1.5C1.22386 8 1 8.22386 1 8.5C1 8.77614 1.22386 9 1.5 9H8V15.5C8 15.7761 8.22386 16 8.5 16C8.77614 16 9 15.7761 9 15.5V9H15.5C15.7761 9 16 8.77614 16 8.5C16 8.22386 15.7761 8 15.5 8H9V1.5C9 1.22386 8.77614 1 8.5 1Z"/>
</mask>
<path fill-rule="evenodd" clip-rule="evenodd" d="M8.5 1C8.22386 1 8 1.22386 8 1.5V8H1.5C1.22386 8 1 8.22386 1 8.5C1 8.77614 1.22386 9 1.5 9H8V15.5C8 15.7761 8.22386 16 8.5 16C8.77614 16 9 15.7761 9 15.5V9H15.5C15.7761 9 16 8.77614 16 8.5C16 8.22386 15.7761 8 15.5 8H9V1.5C9 1.22386 8.77614 1 8.5 1Z" fill="#5C37B7"/>
<path d="M8 8V9H9V8H8ZM8 9H9V8H8V9ZM9 9V8H8V9H9ZM9 8H8V9H9V8ZM9 1.5C9 1.77614 8.77614 2 8.5 2V0C7.67157 0 7 0.671575 7 1.5H9ZM9 8V1.5H7V8H9ZM1.5 9H8V7H1.5V9ZM2 8.5C2 8.77614 1.77614 9 1.5 9V7C0.671573 7 0 7.67157 0 8.5H2ZM1.5 8C1.77614 8 2 8.22386 2 8.5H0C0 9.32843 0.671575 10 1.5 10V8ZM8 8H1.5V10H8V8ZM9 15.5V9H7V15.5H9ZM8.5 15C8.77614 15 9 15.2239 9 15.5H7C7 16.3284 7.67157 17 8.5 17V15ZM8 15.5C8 15.2239 8.22386 15 8.5 15V17C9.32843 17 10 16.3284 10 15.5H8ZM8 9V15.5H10V9H8ZM15.5 8H9V10H15.5V8ZM15 8.5C15 8.22386 15.2239 8 15.5 8V10C16.3284 10 17 9.32843 17 8.5H15ZM15.5 9C15.2239 9 15 8.77614 15 8.5H17C17 7.67157 16.3284 7 15.5 7V9ZM9 9H15.5V7H9V9ZM8 1.5V8H10V1.5H8ZM8.5 2C8.22386 2 8 1.77614 8 1.5H10C10 0.671573 9.32843 0 8.5 0V2Z" fill="#9173E6" mask="url(#path-2-outside-1_1068_3)"/>
</g>
<mask id="path-4-outside-2_1068_3" maskUnits="userSpaceOnUse" x="22" y="9" width="17" height="17" fill="black">
<rect fill="white" x="22" y="9" width="17" height="17"/>
<path fill-rule="evenodd" clip-rule="evenodd" d="M30.5 10C30.2239 10 30 10.2239 30 10.5V17H23.5C23.2239 17 23 17.2239 23 17.5C23 17.7761 23.2239 18 23.5 18H30V24.5C30 24.7761 30.2239 25 30.5 25C30.7761 25 31 24.7761 31 24.5V18H37.5C37.7761 18 38 17.7761 38 17.5C38 17.2239 37.7761 17 37.5 17H31V10.5C31 10.2239 30.7761 10 30.5 10Z"/>
</mask>
<path fill-rule="evenodd" clip-rule="evenodd" d="M30.5 10C30.2239 10 30 10.2239 30 10.5V17H23.5C23.2239 17 23 17.2239 23 17.5C23 17.7761 23.2239 18 23.5 18H30V24.5C30 24.7761 30.2239 25 30.5 25C30.7761 25 31 24.7761 31 24.5V18H37.5C37.7761 18 38 17.7761 38 17.5C38 17.2239 37.7761 17 37.5 17H31V10.5C31 10.2239 30.7761 10 30.5 10Z" fill="#5C37B7"/>
<path d="M30 17V18H31V17H30ZM30 18H31V17H30V18ZM31 18V17H30V18H31ZM31 17H30V18H31V17ZM31 10.5C31 10.7761 30.7761 11 30.5 11V9C29.6716 9 29 9.67157 29 10.5H31ZM31 17V10.5H29V17H31ZM23.5 18H30V16H23.5V18ZM24 17.5C24 17.7761 23.7761 18 23.5 18V16C22.6716 16 22 16.6716 22 17.5H24ZM23.5 17C23.7761 17 24 17.2239 24 17.5H22C22 18.3284 22.6716 19 23.5 19V17ZM30 17H23.5V19H30V17ZM31 24.5V18H29V24.5H31ZM30.5 24C30.7761 24 31 24.2239 31 24.5H29C29 25.3284 29.6716 26 30.5 26V24ZM30 24.5C30 24.2239 30.2239 24 30.5 24V26C31.3284 26 32 25.3284 32 24.5H30ZM30 18V24.5H32V18H30ZM37.5 17H31V19H37.5V17ZM37 17.5C37 17.2239 37.2239 17 37.5 17V19C38.3284 19 39 18.3284 39 17.5H37ZM37.5 18C37.2239 18 37 17.7761 37 17.5H39C39 16.6716 38.3284 16 37.5 16V18ZM31 18H37.5V16H31V18ZM30 10.5V17H32V10.5H30ZM30.5 11C30.2239 11 30 10.7761 30 10.5H32C32 9.67157 31.3284 9 30.5 9V11Z" fill="#9173E6" mask="url(#path-4-outside-2_1068_3)"/>
</svg>
